name Walk2.mot
datacolumns 19
datarows 17
range 1.14200000 1.15800000
endheader

                time	   L_ground_force_vx	   L_ground_force_vy	   L_ground_force_vz	   L_ground_force_px	   L_ground_force_py	   L_ground_force_pz	   R_ground_force_vx	   R_ground_force_vy	   R_ground_force_vz	   R_ground_force_px	   R_ground_force_py	   R_ground_force_pz	   L_ground_torque_x	   L_ground_torque_y	   L_ground_torque_z	   R_ground_torque_x	   R_ground_torque_y	   R_ground_torque_z	
          1.14200000	          0.00000000	          0.00000000	          0.00000000	          0.00000000	          0.00000000	          0.00000000	        -25.83219385	        717.89954539	        -42.49363252	          0.23897936	          0.00000000	          0.08559787	          0.00000000	          0.00000000	          0.00000000	          0.00000000	          5.18183925	          0.00000000	
          1.14300000	          0.00000000	          0.00000000	          0.00000000	          0.00000000	          0.00000000	          0.00000000	        -25.54979490	        716.64643410	        -42.05388914	          0.23940720	          0.00000000	          0.08555842	          0.00000000	          0.00000000	          0.00000000	          0.00000000	          5.10886704	          0.00000000	
          1.14400000	          0.00000000	          0.00000000	          0.00000000	          0.00000000	          0.00000000	          0.00000000	        -25.28041552	        715.56196193	        -41.59989805	          0.23988089	          0.00000000	          0.08563022	          0.00000000	          0.00000000	          0.00000000	          0.00000000	          5.04361853	          0.00000000	
          1.14500000	          0.00000000	          0.00000000	          0.00000000	          0.00000000	          0.00000000	          0.00000000	        -25.01956291	        714.61176615	        -41.13167163	          0.24038755	          0.00000000	          0.08581920	          0.00000000	          0.00000000	          0.00000000	          0.00000000	          4.97934962	          0.00000000	
          1.14600000	          0.00000000	          0.00000000	          0.00000000	          0.00000000	          0.00000000	          0.00000000	        -24.76196281	        713.67876771	        -40.65526694	          0.24087115	          0.00000000	          0.08605908	          0.00000000	          0.00000000	          0.00000000	          0.00000000	          4.90963642	          0.00000000	
          1.14700000	          0.00000000	          0.00000000	          0.00000000	          0.00000000	          0.00000000	          0.00000000	        -24.50095379	        712.63213941	        -40.18256101	          0.24126625	          0.00000000	          0.08625174	          0.00000000	          0.00000000	          0.00000000	          0.00000000	          4.83242194	          0.00000000	
          1.14800000	          0.00000000	          0.00000000	          0.00000000	          0.00000000	          0.00000000	          0.00000000	        -24.23062941	        711.42060027	        -39.73241245	          0.24156135	          0.00000000	          0.08634173	          0.00000000	          0.00000000	          0.00000000	          0.00000000	          4.75083537	          0.00000000	
          1.14900000	          0.00000000	          0.00000000	          0.00000000	          0.00000000	          0.00000000	          0.00000000	        -23.94851512	        710.09072032	        -39.32552764	          0.24181656	          0.00000000	          0.08634270	          0.00000000	          0.00000000	          0.00000000	          0.00000000	          4.67131484	          0.00000000	
          1.15000000	          0.00000000	          0.00000000	          0.00000000	          0.00000000	          0.00000000	          0.00000000	        -23.65684298	        708.73504934	        -38.97427148	          0.24210222	          0.00000000	          0.08630336	          0.00000000	          0.00000000	          0.00000000	          0.00000000	          4.59931849	          0.00000000	
          1.15100000	          0.00000000	          0.00000000	          0.00000000	          0.00000000	          0.00000000	          0.00000000	        -23.35863490	        707.43875856	        -38.67883796	          0.24244327	          0.00000000	          0.08626266	          0.00000000	          0.00000000	          0.00000000	          0.00000000	          4.53754878	          0.00000000	
          1.15200000	          0.00000000	          0.00000000	          0.00000000	          0.00000000	          0.00000000	          0.00000000	        -23.05220261	        706.24803666	        -38.43205096	          0.24284064	          0.00000000	          0.08623480	          0.00000000	          0.00000000	          0.00000000	          0.00000000	          4.48754638	          0.00000000	
          1.15300000	          0.00000000	          0.00000000	          0.00000000	          0.00000000	          0.00000000	          0.00000000	        -22.73544264	        705.16282363	        -38.22182567	          0.24330377	          0.00000000	          0.08622571	          0.00000000	          0.00000000	          0.00000000	          0.00000000	          4.44864485	          0.00000000	
          1.15400000	          0.00000000	          0.00000000	          0.00000000	          0.00000000	          0.00000000	          0.00000000	        -22.41481769	        704.15596505	        -38.03233904	          0.24382981	          0.00000000	          0.08624696	          0.00000000	          0.00000000	          0.00000000	          0.00000000	          4.41628193	          0.00000000	
          1.15500000	          0.00000000	          0.00000000	          0.00000000	          0.00000000	          0.00000000	          0.00000000	        -22.10580595	        703.20229162	        -37.85142209	          0.24438751	          0.00000000	          0.08630814	          0.00000000	          0.00000000	          0.00000000	          0.00000000	          4.38448978	          0.00000000	
          1.15600000	          0.00000000	          0.00000000	          0.00000000	          0.00000000	          0.00000000	          0.00000000	        -21.82455311	        702.28324586	        -37.67488643	          0.24494395	          0.00000000	          0.08640747	          0.00000000	          0.00000000	          0.00000000	          0.00000000	          4.34950985	          0.00000000	
          1.15700000	          0.00000000	          0.00000000	          0.00000000	          0.00000000	          0.00000000	          0.00000000	        -21.57650320	        701.36498867	        -37.50360814	          0.24547839	          0.00000000	          0.08653018	          0.00000000	          0.00000000	          0.00000000	          0.00000000	          4.31115134	          0.00000000	
          1.15800000	          0.00000000	          0.00000000	          0.00000000	          0.00000000	          0.00000000	          0.00000000	        -21.35250379	        700.39789050	        -37.34304873	          0.24596351	          0.00000000	          0.08665166	          0.00000000	          0.00000000	          0.00000000	          0.00000000	          4.27150123	          0.00000000	
